# xmcd
#
# Track frame offsets:
#	150
#	16120
#	50970
#	68205
#	87292
#	106442
#	120372
#	138161
#	161161
#	176551
#
# Disc length: 2616 seconds
#
# Revision: 0
# Processed by: cddbd v1.5.2PL0 Copyright (c) Steve Scherf et al.
# Submitted via: EasyCDDAExtractor 2011.0.0.0
#
DISCID=820a360a
DTITLE=Peter Parcek - Everybody Wants To Go To Heaven
DYEAR=2017
DGENRE=Blues
TTITLE0=World Keep On Turning
TTITLE1=See That My Grave Is Kept Clean
TTITLE2=Pat Hare 
TTITLE3=Ashes To Ashes 
TTITLE4=Every Drop Of Rain 
TTITLE5=Shiver
TTITLE6=Things Fall Apart 
TTITLE7=Everybody Wants To Go To Heaven
TTITLE8=Mississippi Suitcase
TTITLE9=Aunt Caroline Dyer Blues
EXTD=
EXTT0=
EXTT1=
EXTT2=
EXTT3=
EXTT4=
EXTT5=
EXTT6=
EXTT7=
EXTT8=
EXTT9=
PLAYORDER=
